<?xml version="1.0" encoding="utf-8"?>
<!-- Generator: Adobe Illustrator 19.1.0, SVG Export Plug-In . SVG Version: 6.00 Build 0)  -->
<svg version="1.1" id="Layer_1" xmlns="http://www.w3.org/2000/svg" xmlns:xlink="http://www.w3.org/1999/xlink" x="0px" y="0px"
	 viewBox="0 -6 48 60" style="enable-background:new 0 -6 48 60;" xml:space="preserve">
<style type="text/css">
	.st0{fill:#F9FFF4;stroke:#33312E;stroke-width:5;stroke-miterlimit:10;}
	.st1{fill:#5E534A;stroke:#5E534A;stroke-miterlimit:10;}
</style>
<g id="Layer_2">
	<path class="st0" d="M32.1,4.7c4.8,2.8,8,8,8,13.9c0,8.9-7.2,16.1-16.1,16.1S7.9,27.5,7.9,18.6S15.1,2.5,24,2.5
		C27,2.5,29.7,3.3,32.1,4.7"/>
</g>
<g>
	<g>
		<path class="st1" d="M24.3,25.5c-3.7,0-6.7-3-6.7-6.7s3-6.7,6.7-6.7c1.8,0,3.4,0.6,4.7,1.9l0,0c1.6,1.8,1.5,4,1,5.5
			c-0.6,1.5-1.8,2.6-3.2,2.7c-0.3,0-0.6,0-0.8-0.2c-0.3-0.4-0.2-1-0.2-1.1l1.1-5.6l0.4,0.1l-1.1,5.6c0,0.1-0.1,0.5,0.1,0.7
			c0.1,0.1,0.2,0.1,0.4,0.1c1.2-0.1,2.3-1.1,2.8-2.4c0.5-1.4,0.6-3.4-0.9-5.1c-1.2-1.1-2.7-1.7-4.4-1.7c-3.5,0-6.3,2.8-6.3,6.3
			s2.8,6.3,6.3,6.3c2.1,0,4.1-1.1,5.3-2.8l0.3,0.2C28.7,24.4,26.6,25.5,24.3,25.5z"/>
	</g>
	<g>
		<path class="st1" d="M23.1,22.1c-1.2,0-1.8-0.6-2.1-1c-0.5-0.9-0.5-2.1,0-3.3c1-2,2.3-2.9,3.7-2.4c1.3,0.4,2.2,2,1.9,3.2l-0.4-0.1
			c0.1-0.5,0-1.1-0.3-1.6c-0.3-0.5-0.8-1-1.3-1.1c-0.5-0.2-1-0.1-1.5,0.2c-0.6,0.4-1.2,1-1.6,2c-0.5,1-0.5,2.2-0.1,2.9
			c0.3,0.5,0.9,0.8,1.7,0.8c0.7,0,1.4-0.3,2-0.8c0.5-0.5,0.9-1.2,1.1-2l0.4,0.1c-0.2,0.9-0.7,1.6-1.2,2.2
			C24.7,21.8,23.9,22.1,23.1,22.1z"/>
	</g>
</g>
</svg>
