<?xml version="1.0" encoding="utf-8"?>
<!-- Generator: Adobe Illustrator 19.1.0, SVG Export Plug-In . SVG Version: 6.00 Build 0)  -->
<svg version="1.1" id="Layer_1" xmlns="http://www.w3.org/2000/svg" xmlns:xlink="http://www.w3.org/1999/xlink" x="0px" y="0px"
	 viewBox="0 -6 48 60" style="enable-background:new 0 -6 48 60;" xml:space="preserve">
<style type="text/css">
	.st0{fill:#F9FFF4;stroke:#33312E;stroke-width:5;stroke-miterlimit:10;}
	.st1{fill:#AD551A;}
</style>
<g id="Layer_2">
	<path class="st0" d="M32.1,10.7c4.8,2.8,8,8,8,13.9c0,8.9-7.2,16.1-16.1,16.1S7.9,33.5,7.9,24.6S15.1,8.5,24,8.5
		C27,8.5,29.7,9.3,32.1,10.7"/>
</g>
<g>
	<path class="st1" d="M29.7,31.3H18.4c-0.7,0-1.3-0.5-1.3-1.3V18.7c0-0.7,0.5-1.3,1.3-1.3h11.3c0.7,0,1.3,0.5,1.3,1.3V30
		C31,30.8,30.4,31.3,29.7,31.3z M18.4,18.7c-0.1,0-0.1,0.1-0.1,0.1v11.3c0,0.1,0.1,0.1,0.1,0.1h11.3c0.1,0,0.1-0.1,0.1-0.1V18.8
		c0-0.1-0.1-0.1-0.1-0.1H18.4L18.4,18.7z"/>
	<g>
		<g>
			<path class="st1" d="M21.8,26.8c-0.2,0-0.3-0.1-0.4-0.2l-1.7-1.7c-0.2-0.2-0.2-0.6,0-0.8l1.7-1.7c0.2-0.2,0.6-0.2,0.8,0
				c0.2,0.2,0.2,0.6,0,0.8l-1.3,1.3l1.3,1.3c0.2,0.2,0.2,0.6,0,0.8C22.1,26.7,22,26.8,21.8,26.8z"/>
			<path class="st1" d="M26.3,26.8c-0.2,0-0.3-0.1-0.4-0.2c-0.2-0.2-0.2-0.6,0-0.8l1.3-1.3l-1.3-1.3c-0.2-0.2-0.2-0.6,0-0.8
				c0.2-0.2,0.6-0.2,0.8,0l1.7,1.7c0.1,0.1,0.2,0.3,0.2,0.4s-0.1,0.3-0.2,0.4l-1.7,1.7C26.6,26.7,26.5,26.8,26.3,26.8z"/>
		</g>
		<path class="st1" d="M22.9,27.7c-0.1,0-0.2,0-0.2-0.1c-0.3-0.1-0.4-0.5-0.3-0.8l2.3-5.3c0.1-0.3,0.5-0.4,0.8-0.3s0.4,0.5,0.3,0.8
			l-2.3,5.3C23.3,27.5,23.1,27.7,22.9,27.7z"/>
	</g>
</g>
</svg>
