<?xml version="1.0" encoding="utf-8"?>
<!-- Generator: Adobe Illustrator 19.1.0, SVG Export Plug-In . SVG Version: 6.00 Build 0)  -->
<svg version="1.1" id="Layer_1" xmlns="http://www.w3.org/2000/svg" xmlns:xlink="http://www.w3.org/1999/xlink" x="0px" y="0px"
	 viewBox="-455 251 48 60" style="enable-background:new -455 251 48 60;" xml:space="preserve">
<style type="text/css">
	.st0{fill:#F9FFF4;stroke:#4D4545;stroke-width:5;stroke-miterlimit:10;}
	.st1{fill:#AD551A;}
</style>
<g id="Layer_2">
	<circle class="st0" cx="-430.8" cy="281" r="16.1"/>
</g>
<g>
	<path class="st1" d="M-425.1,287.7h-11.3c-0.7,0-1.3-0.5-1.3-1.3v-11.3c0-0.7,0.5-1.3,1.3-1.3h11.3c0.7,0,1.3,0.5,1.3,1.3v11.3
		C-423.8,287.2-424.4,287.7-425.1,287.7z M-436.4,275.1c-0.1,0-0.1,0.1-0.1,0.1v11.3c0,0.1,0.1,0.1,0.1,0.1h11.3
		c0.1,0,0.1-0.1,0.1-0.1v-11.3c0-0.1-0.1-0.1-0.1-0.1L-436.4,275.1L-436.4,275.1z"/>
	<g>
		<g>
			<path class="st1" d="M-433,283.2c-0.2,0-0.3-0.1-0.4-0.2l-1.7-1.7c-0.2-0.2-0.2-0.6,0-0.8l1.7-1.7c0.2-0.2,0.6-0.2,0.8,0
				c0.2,0.2,0.2,0.6,0,0.8l-1.3,1.3l1.3,1.3c0.2,0.2,0.2,0.6,0,0.8C-432.7,283.1-432.8,283.2-433,283.2z"/>
			<path class="st1" d="M-428.5,283.2c-0.2,0-0.3-0.1-0.4-0.2c-0.2-0.2-0.2-0.6,0-0.8l1.3-1.3l-1.3-1.3c-0.2-0.2-0.2-0.6,0-0.8
				c0.2-0.2,0.6-0.2,0.8,0l1.7,1.7c0.1,0.1,0.2,0.3,0.2,0.4s-0.1,0.3-0.2,0.4l-1.7,1.7C-428.2,283.1-428.3,283.2-428.5,283.2z"/>
		</g>
		<path class="st1" d="M-431.9,284.1c-0.1,0-0.2,0-0.2-0.1c-0.3-0.1-0.4-0.5-0.3-0.8l2.3-5.3c0.1-0.3,0.5-0.4,0.8-0.3
			c0.3,0.1,0.4,0.5,0.3,0.8l-2.3,5.3C-431.5,283.9-431.7,284.1-431.9,284.1z"/>
	</g>
</g>
</svg>
