<?xml version="1.0" encoding="utf-8"?>
<!-- Generator: Adobe Illustrator 19.1.0, SVG Export Plug-In . SVG Version: 6.00 Build 0)  -->
<svg version="1.1" id="Layer_1" xmlns="http://www.w3.org/2000/svg" xmlns:xlink="http://www.w3.org/1999/xlink" x="0px" y="0px"
	 viewBox="-429 218 100 125" style="enable-background:new -429 218 100 125;" xml:space="preserve">
<path d="M-368.8,244.8c-0.5-0.3-1.2-0.7-2-1.1c-0.4-0.2-0.8-0.5-1.2-0.7c-0.5-0.2-1-0.4-1.5-0.6c-0.5-0.2-1.1-0.4-1.7-0.7
	c-0.6-0.2-1.2-0.4-1.9-0.6c-1.3-0.5-2.8-0.6-4.4-1c-3.2-0.4-6.9-0.5-10.9,0.2c-4,0.7-8.2,2.2-12.1,4.7c-4,2.5-7.7,6-10.5,10.3
	c-2.9,4.3-4.9,9.5-5.6,15.1c-0.6,5.5,0,11.4,2.1,16.8c2.1,5.4,5.6,10.4,10.1,14.1c4.5,3.8,10,6.4,15.6,7.6c5.7,1.2,11.6,0.8,17-0.8
	c5.4-1.6,10.2-4.4,13.9-8.1c3.8-3.6,6.6-7.9,8.4-12.3c0.9-2.2,1.5-4.4,1.9-6.6c0.4-2.2,0.6-4.3,0.6-6.3c0-4.1-0.8-7.8-1.8-10.9
	c-1-3.1-2.4-5.6-3.7-7.6c-1.3-2-2.6-3.3-3.5-4.3c-2-2.1-2.5-4.3-1.7-5.5c0.4-0.6,1.1-0.8,2.1-0.6c0.5,0.1,1.1,0.4,1.7,0.8
	c0.6,0.4,1.3,1,2,1.8c1,1.2,2.2,2.9,3.5,5.3c1.3,2.3,2.8,5.3,3.8,8.8c1,3.5,1.7,7.7,1.6,12.2c0,2.3-0.3,4.6-0.8,7
	c-0.5,2.4-1.3,4.8-2.3,7.2c-2.1,4.8-5.2,9.5-9.4,13.4c-4.2,3.9-9.5,7-15.4,8.7c-5.9,1.7-12.3,2.1-18.5,0.8
	c-6.2-1.2-12.2-4.1-17.1-8.3c-4.9-4.1-8.7-9.5-11-15.4c-2.3-5.9-3-12.3-2.4-18.3c0.7-6.1,2.8-11.8,5.9-16.6
	c3.1-4.8,7.1-8.7,11.4-11.5c4.3-2.8,9-4.6,13.4-5.5c4.4-0.9,8.5-1,12.1-0.6c1.8,0.3,3.5,0.4,5,0.9c0.8,0.2,1.5,0.4,2.2,0.5
	c0.7,0.2,1.3,0.5,2,0.7c0.6,0.2,1.2,0.4,1.8,0.6c0.5,0.2,1,0.4,1.5,0.7c0.9,0.4,1.8,0.7,2.4,1.1c1.1,0.7,2,1.3,2.8,1.9
	c0.7,0.7,1.2,1.3,1.6,1.9c0.7,1.2,0.7,2,0.3,2.5c-0.5,0.5-1.4,0.7-2.6,0.4c-0.6-0.1-1.3-0.4-2-0.8
	C-367,245.8-367.9,245.4-368.8,244.8z M-401,282.4c0,2.1,0.8,3.8,1.9,3.8c1,0,1.9-1.7,1.9-3.8c0-2.1-0.8-3.8-1.9-3.8
	C-400.1,278.6-401,280.3-401,282.4z M-375.8,282.4c0,2.1,0.8,3.8,1.9,3.8c1,0,1.9-1.7,1.9-3.8c0-2.1-0.8-3.8-1.9-3.8
	C-375,278.6-375.8,280.3-375.8,282.4z M-360.5,239.5c1.2-0.6,2.1-1.7,1.6-3c-0.2-0.4-0.5-0.9-0.7-1.6c-0.3-0.7-0.5-1.6-0.7-2.6
	c-0.2-1-0.3-2.1-0.1-3.2c0.1-0.5,0.2-1,0.4-1.3c0.2-0.3,0.4-0.5,0.9-0.7c0.9-0.3,2.4,0,4,0.5c1.6,0.5,3,1.4,3.4,2.4
	c0.2,0.5,0.2,1.2,0,1.9c-0.1,0.2-0.1,0.4-0.2,0.6l-0.1,0.3l-0.2,0.4c-0.4,0.7-0.8,1.4-1.4,2.1c-1.5,1.6-3.5,3.7-5.2,5.4
	c0.3,0.1,1.3-0.3,2.2-0.4l2.7-0.6c2-0.5,3.7-0.7,5.3-0.8c0.2,0,0.4,0,0.6,0l0.4,0c0.2,0,0.5,0,0.7,0c0.5,0,1,0,1.4,0.1
	c0.9,0.1,1.8,0.2,2.7,0.4c0.8,0.2,1.6,0.6,2.2,1c0.5,0.4,1,1,1.2,1.6c0.2,0.6,0.3,1.2,0.2,1.8c-0.2,1.2-1.1,1.8-2.3,2.3
	c-1.2,0.4-2.5,0.3-3.7,0.1c-1.2-0.2-2.3-0.6-3.2-1.1c-0.9-0.5-1.7-1-2.2-1.4c-0.6-0.4-0.9-0.9-1.2-1.2c-0.4-0.4-0.9-0.4-1.4-0.2
	c-0.5,0.2-1.1,0.6-1.6,1c-0.5,0.5-0.8,1.1-0.9,1.7c-0.1,0.6,0.1,1.2,0.6,1.6c0.5,0.3,1.1,0.7,2,1.1c0.8,0.5,1.9,0.9,3.1,1.4
	c1.2,0.5,2.7,0.9,4.3,1c1.6,0.2,3.6,0.2,5.5-0.6c0.5-0.2,1-0.4,1.4-0.7c0.2-0.1,0.5-0.3,0.7-0.5c0.2-0.2,0.4-0.4,0.7-0.6
	c0.5-0.4,0.7-1,1.1-1.5c0.1-0.3,0.2-0.6,0.3-0.9c0.1-0.3,0.2-0.6,0.2-0.9c0.3-1.3,0-2.6-0.5-3.7c-0.3-0.6-0.6-1.1-1-1.6
	c-0.4-0.5-0.9-0.9-1.4-1.3c-2.1-1.4-4.4-1.8-6.5-1.9c-0.5-0.1-1.1,0-1.6-0.1c-0.3,0-0.5,0-0.8,0l-0.6,0c-0.4,0-0.8,0.1-1.2,0.1
	l-0.5,0.1l-0.2,0c0,0-0.1,0-0.1,0l0.1-0.1c0.3-0.3,0.6-0.6,0.8-1c0.1-0.2,0.2-0.3,0.3-0.5l0.1-0.3l0.2-0.4c0.1-0.3,0.2-0.6,0.3-0.9
	c0.3-1.2,0.4-2.6-0.1-3.9c-0.5-1.3-1.4-2.3-2.4-3c-1-0.7-1.9-1.1-2.9-1.5c-0.9-0.4-1.9-0.7-2.9-0.9c-1-0.2-2.1-0.3-3.3,0
	c-1.2,0.3-2.3,1.1-3,2c-0.7,0.9-1,1.9-1.3,2.8c-0.4,1.7-0.4,3.2-0.3,4.5c0.1,1.3,0.2,2.4,0.4,3.2c0.1,0.9,0.2,1.6,0.3,2.1
	C-363.4,239.8-361.7,240-360.5,239.5z M-384.9,247.2c0.1,0.2,0.4,0.5,0.6,0.9c0.2,0.4,0.5,0.9,0.8,1.4c0.3,0.5,0.6,1.2,1.1,1.8
	c0.4,0.7,0.9,1.4,1.3,2.2c0.5,0.7,1,1.6,1.6,2.4c0.6,0.8,1.2,1.6,1.9,2.4c0.3,0.4,0.7,0.8,1,1.2c0.4,0.4,0.8,0.8,1.1,1.2
	c0.7,0.8,1.6,1.5,2.4,2.3c0.9,0.7,1.7,1.5,2.6,2.1c0.4,0.3,0.9,0.7,1.3,1c0.5,0.3,0.9,0.6,1.3,0.9c0.9,0.6,1.8,1.1,2.6,1.6
	c0.9,0.5,1.7,0.9,2.5,1.4c0.8,0.4,1.6,0.8,2.3,1.1c0.7,0.3,1.4,0.6,1.9,0.9c0.6,0.3,1.1,0.5,1.5,0.7c0.4,0.2,0.7,0.5,1,0.6
	c1.3,0.5,2.5-4.9,1.5-5.1c-0.2-0.1-0.6,0-1-0.1c-0.4,0-0.9-0.1-1.5-0.3c-0.6-0.1-1.2-0.3-1.9-0.5c-0.7-0.2-1.4-0.5-2.2-0.8
	c-0.8-0.3-1.6-0.7-2.4-1.1c-0.8-0.4-1.7-0.8-2.5-1.4c-0.4-0.3-0.8-0.5-1.3-0.8c-0.4-0.3-0.8-0.6-1.2-0.9c-0.9-0.6-1.6-1.3-2.4-1.9
	c-0.7-0.7-1.5-1.4-2.2-2.2c-0.3-0.4-0.7-0.8-1-1.1c-0.3-0.4-0.6-0.8-0.9-1.2c-0.6-0.8-1.1-1.6-1.6-2.3c-0.5-0.8-0.9-1.6-1.3-2.3
	c-0.4-0.7-0.7-1.5-1-2.1c-0.3-0.6-0.5-1.3-0.6-1.8c-0.2-0.5-0.3-1-0.4-1.4c-0.1-0.4-0.1-0.8-0.1-1
	C-380.5,243.9-385.8,245.6-384.9,247.2z M-384.3,254.2c-0.2,0.2-0.4,0.4-0.7,0.7c-0.3,0.3-0.8,0.6-1.2,1c-0.5,0.4-1.1,0.8-1.7,1.2
	c-0.6,0.4-1.3,0.9-2,1.3c-0.7,0.5-1.5,1-2.3,1.4c-0.8,0.5-1.7,1-2.6,1.5c-0.9,0.5-1.8,1-2.8,1.4c-1,0.5-1.9,0.9-2.9,1.4
	c-1,0.4-2,0.8-3,1.2c-0.5,0.2-1,0.4-1.5,0.6c-0.5,0.2-1,0.3-1.5,0.5c-1,0.3-1.9,0.6-2.8,0.8c-0.9,0.3-1.8,0.4-2.6,0.5
	c-0.8,0.2-1.6,0.3-2.4,0.4c-0.7,0.1-1.4,0.1-2,0.1c-0.6,0-1.1,0-1.5,0c-0.4,0-0.8-0.1-1-0.1c-1.3,0.1-0.7,5.5,0.5,5.3
	c0.3-0.1,0.6-0.2,1.1-0.4c0.5-0.1,1-0.3,1.6-0.4c0.6-0.2,1.3-0.3,2.1-0.5c0.8-0.2,1.6-0.5,2.5-0.7c0.9-0.3,1.8-0.5,2.8-0.8
	c0.9-0.3,1.9-0.7,2.9-1c0.5-0.2,1-0.4,1.5-0.5c0.5-0.2,1-0.4,1.5-0.6c1-0.4,2-0.8,3.1-1.3c1-0.5,2-0.9,3-1.4c1-0.5,2-0.9,2.9-1.4
	c0.9-0.5,1.8-0.9,2.7-1.4c0.9-0.4,1.7-0.9,2.5-1.3c0.8-0.4,1.5-0.8,2.2-1.1c0.7-0.3,1.3-0.6,1.9-0.9c0.6-0.2,1-0.4,1.5-0.6
	c0.4-0.2,0.8-0.2,1-0.3C-380.2,257.9-383,253.1-384.3,254.2z M-396.4,297.4c6.5,2.8,14,3.3,20.8,1.1c2.4-0.8,0.5-2.6-1.3-2
	c-5.6,1.8-11.6,1.3-17-1C-395.2,294.9-398.4,296.5-396.4,297.4L-396.4,297.4z"/>
</svg>
