<?xml version="1.0" encoding="utf-8"?>
<!-- Generator: Adobe Illustrator 19.1.0, SVG Export Plug-In . SVG Version: 6.00 Build 0)  -->
<svg version="1.1" id="Layer_1" xmlns="http://www.w3.org/2000/svg" xmlns:xlink="http://www.w3.org/1999/xlink" x="0px" y="0px"
	 viewBox="-455 251 48 60" style="enable-background:new -455 251 48 60;" xml:space="preserve">
<g>
	<path d="M-411.8,298.5h-38.4c-2.4,0-4.3-1.9-4.3-4.3v-38.4c0-2.4,1.9-4.3,4.3-4.3h38.4c2.4,0,4.3,1.9,4.3,4.3v38.4
		C-407.5,296.6-409.4,298.5-411.8,298.5z M-450.2,255.4c-0.2,0-0.4,0.2-0.4,0.4v38.4c0,0.2,0.2,0.4,0.4,0.4h38.4
		c0.2,0,0.4-0.2,0.4-0.4v-38.4c0-0.2-0.2-0.4-0.4-0.4H-450.2z"/>
	<g>
		<g>
			<path d="M-438.7,282.9c-0.5,0-1-0.2-1.4-0.6l-5.9-5.9c-0.8-0.8-0.8-2,0-2.8l5.9-5.9c0.8-0.8,2-0.8,2.8,0c0.8,0.8,0.8,2,0,2.8
				l-4.5,4.5l4.5,4.5c0.8,0.8,0.8,2,0,2.8C-437.7,282.7-438.2,282.9-438.7,282.9z"/>
			<path d="M-423.3,282.9c-0.5,0-1-0.2-1.4-0.6c-0.8-0.8-0.8-2,0-2.8l4.5-4.5l-4.5-4.5c-0.8-0.8-0.8-2,0-2.8c0.8-0.8,2-0.8,2.8,0
				l5.9,5.9c0.4,0.4,0.6,0.9,0.6,1.4s-0.2,1-0.6,1.4l-5.9,5.9C-422.3,282.7-422.8,282.9-423.3,282.9z"/>
		</g>
		<path d="M-435,286c-0.3,0-0.5-0.1-0.8-0.2c-1-0.4-1.4-1.6-1-2.6l8-18.2c0.4-1,1.6-1.4,2.6-1s1.4,1.6,1,2.6l-8,18.2
			C-433.5,285.6-434.3,286-435,286z"/>
	</g>
</g>
</svg>
