<svg xmlns="http://www.w3.org/2000/svg" xmlns:xlink="http://www.w3.org/1999/xlink" version="1.1" x="0px" y="0px" viewBox="0 0 512 640" enable-background="new 0 0 512 512" xml:space="preserve"><g><g><path d="M256,454c-109.178,0-198-88.822-198-198S146.822,58,256,58c53.081,0,100.438,19.021,136.954,55.007l0.269,0.282    c46.905,52.65,45.483,118.028,28.512,161.656c-17.502,44.991-53.25,75.463-93.295,79.524c-9.921,1.01-17.596-1.456-22.805-7.319    c-9.679-10.894-6.137-28.833-5.634-31.124l33.788-165.559l11.758,2.399l-33.82,165.71c-0.843,3.877-1.973,15.168,2.894,20.62    c2.542,2.847,6.667,3.937,12.608,3.334c35.536-3.604,67.463-31.168,83.322-71.936c15.668-40.279,17.014-100.597-26.159-149.178    C350.187,87.778,305.795,70,256,70C153.439,70,70,153.439,70,256s83.439,186,186,186c62.675,0,120.741-31.268,155.327-83.64    l10.014,6.612C384.527,420.719,322.717,454,256,454z"/></g><g><path d="M221,353.667c-34.614,0-52.137-16.498-60.742-30.338c-15.689-25.234-15.155-63.171,1.361-96.649    c28.849-58.477,68.206-84.224,107.984-70.64c36.834,12.58,63.499,57.993,55.944,95.278l-11.761-2.383    c3.019-14.898-0.541-32.516-9.766-48.337c-9.312-15.969-23.27-28.071-38.295-33.203c-14.817-5.06-30.333-3.252-44.867,5.231    c-17.885,10.439-34.195,30.412-48.478,59.362c-14.497,29.386-15.273,63.546-1.932,85.004    c10.036,16.142,27.516,24.674,50.551,24.674c20.916,0,40.797-8.559,57.493-24.751c15.644-15.172,27.521-36.248,33.445-59.346    l11.624,2.981c-6.466,25.211-19.505,48.288-36.715,64.979C267.867,343.937,245.098,353.667,221,353.667z"/></g></g><text x="0" y="527" fill="#000000" font-size="5px" font-weight="bold" font-family="'Helvetica Neue', Helvetica, Arial-Unicode, Arial, Sans-serif">Created by Richard Schumann</text><text x="0" y="532" fill="#000000" font-size="5px" font-weight="bold" font-family="'Helvetica Neue', Helvetica, Arial-Unicode, Arial, Sans-serif">from the Noun Project</text></svg>