<?xml version="1.0" encoding="utf-8"?>
<!-- Generator: Adobe Illustrator 19.1.0, SVG Export Plug-In . SVG Version: 6.00 Build 0)  -->
<svg version="1.1" id="Layer_1" xmlns="http://www.w3.org/2000/svg" xmlns:xlink="http://www.w3.org/1999/xlink" x="0px" y="0px"
	 viewBox="0 -6 48 60" style="enable-background:new 0 -6 48 60;" xml:space="preserve">
<style type="text/css">
	.st0{fill:#F9FFF4;stroke:#33312E;stroke-width:5;stroke-miterlimit:10;}
	.st1{fill:#386BD1;stroke:#386BD1;stroke-width:0.5;stroke-miterlimit:10;}
</style>
<g id="Layer_2">
	<path class="st0" d="M32.1,4.7c4.8,2.8,8,8,8,13.9c0,8.9-7.2,16.1-16.1,16.1S7.9,27.5,7.9,18.6S15.1,2.5,24,2.5
		C27,2.5,29.7,3.3,32.1,4.7"/>
</g>
<g>
	<g>
		<path class="st1" d="M24,25.7c-3.8,0-6.8-3-6.8-6.8s3-6.8,6.8-6.8s6.8,3,6.8,6.8S27.8,25.7,24,25.7z M24,13.2
			c-3.1,0-5.7,2.5-5.7,5.7s2.5,5.7,5.7,5.7s5.7-2.5,5.7-5.7S27.1,13.2,24,13.2z"/>
	</g>
	<g>
		<g>
			<path class="st1" d="M21.5,18c-0.3,0-0.6-0.3-0.6-0.6v-0.1c0-0.3,0.3-0.6,0.6-0.6s0.6,0.3,0.6,0.6v0.1C22.1,17.7,21.8,18,21.5,18
				z"/>
		</g>
		<g>
			<path class="st1" d="M26.5,18c-0.3,0-0.6-0.3-0.6-0.6v-0.1c0-0.3,0.3-0.6,0.6-0.6c0.3,0,0.6,0.3,0.6,0.6v0.1
				C27.1,17.7,26.8,18,26.5,18z"/>
		</g>
	</g>
	<g>
		<path class="st1" d="M24,22.1c-1,0-2-0.4-2.7-1.1c-0.2-0.2-0.2-0.6,0-0.8s0.6-0.2,0.8,0c1.1,1.1,2.8,1.1,3.8,0
			c0.2-0.2,0.6-0.2,0.8,0c0.2,0.2,0.2,0.6,0,0.8C26,21.7,25,22.1,24,22.1z"/>
	</g>
</g>
</svg>
