<?xml version="1.0" encoding="utf-8"?>
<!-- Generator: Adobe Illustrator 19.1.0, SVG Export Plug-In . SVG Version: 6.00 Build 0)  -->
<svg version="1.1" id="Layer_1" xmlns="http://www.w3.org/2000/svg" xmlns:xlink="http://www.w3.org/1999/xlink" x="0px" y="0px"
	 viewBox="0 0 48 48" style="enable-background:new 0 0 48 48;" xml:space="preserve">
<style type="text/css">
	.st0{fill:#0864FF;stroke:#001771;stroke-width:5;stroke-miterlimit:10;}
	.st1{fill:none;}
	.st2{enable-background:new    ;}
	.st3{fill:#001771;}
</style>
<image style="overflow:visible;enable-background:new    ;" width="1200" height="630" xlink:href="gitpic.jpg"  transform="matrix(0.9058 0 0 1.2175 -604.7341 81.5125)">
</image>
<rect x="119.4" y="596.3" transform="matrix(0.9331 -0.3596 0.3596 0.9331 -225.6187 143.3343)" class="st0" width="306.2" height="163.6"/>
<rect x="283.6" y="500.7" transform="matrix(-0.9285 0.3713 -0.3713 -0.9285 1015.8367 962.1498)" class="st1" width="263.3" height="156.3"/>
<rect x="112.9" y="473.8" class="st1" width="484" height="221"/>
<text transform="matrix(0.931 -0.3649 0.3649 0.931 185.1195 743.1571)" class="st3" style="font-family:'Phosphate-Inline'; font-size:99.987px; letter-spacing:-6;">l</text>
<text transform="matrix(0.931 -0.3649 0.3649 0.931 254.5318 716.3815)" class="st3" style="font-family:'Phosphate-Inline'; font-size:99.987px; letter-spacing:-5;">e</text>
<text transform="matrix(0.931 -0.3649 0.3649 0.931 325.6527 689.58)" class="st3" style="font-family:'Phosphate-Inline'; font-size:99.987px; letter-spacing:30;">t</text>
<rect x="498" y="334" class="st1" width="126" height="42"/>
<rect x="5.3" y="377.5" class="st1" width="65" height="12"/>
</svg>
